<?xml version="1.0" encoding="utf-8"?>
<!-- Generator: Adobe Illustrator 16.0.4, SVG Export Plug-In . SVG Version: 6.00 Build 0)  -->
<!DOCTYPE svg PUBLIC "-//W3C//DTD SVG 1.1//EN" "http://www.w3.org/Graphics/SVG/1.1/DTD/svg11.dtd">
<svg version="1.1" id="Layer_1" xmlns="http://www.w3.org/2000/svg" xmlns:xlink="http://www.w3.org/1999/xlink" x="0px" y="0px"
	 width="129.511px" height="170.681px" viewBox="0 0 129.511 170.681" enable-background="new 0 0 129.511 170.681"
	 xml:space="preserve">
<g id="Landing_Page_1_">
	<path fill="#EAEAEA" d="M3,0h124c1.657,0,3,1.343,3,3v164c0,1.657-1.343,3-3,3H3c-1.657,0-3-1.343-3-3V3C0,1.343,1.343,0,3,0z"/>
	<g>
		<path fill="#D9D8DA" d="M12,50h106c1.104,0,2,0.896,2,2v46c0,1.104-0.896,2-2,2H12c-1.104,0-2-0.896-2-2V52
			C10,50.896,10.896,50,12,50z"/>
		<path fill="#B8B8BD" d="M100.925,66.387l5.372,8.059c0.224,0.336,0.224,0.773,0,1.109l-5.372,8.059
			c-0.273,0.41-0.163,0.964,0.247,1.237c0.146,0.098,0.318,0.15,0.495,0.15h1.131c0.335,0,0.646-0.167,0.832-0.445l6-9
			c0.225-0.336,0.225-0.773,0-1.109l-6-9c-0.186-0.278-0.497-0.445-0.832-0.445h-1.131c-0.493,0-0.893,0.399-0.893,0.892
			C100.774,66.068,100.827,66.24,100.925,66.387z"/>
		<path fill="#B8B8BD" d="M29.075,83.613l-5.372-8.059c-0.224-0.336-0.224-0.773,0-1.109l5.372-8.059
			c0.273-0.41,0.163-0.964-0.247-1.237C28.682,65.052,28.51,65,28.333,65h-1.131c-0.335,0-0.646,0.167-0.832,0.445l-6,9
			c-0.225,0.336-0.225,0.773,0,1.109l6,9C26.556,84.833,26.867,85,27.202,85h1.131c0.493,0,0.893-0.399,0.893-0.892
			C29.226,83.932,29.173,83.76,29.075,83.613z"/>
	</g>
	<g>
		<circle fill="#B8B8BD" cx="75" cy="107.5" r="2.5"/>
		<circle fill="#B8B8BD" cx="65" cy="107.5" r="2.5"/>
		<circle fill="#B8B8BD" cx="55" cy="107.5" r="2.5"/>
	</g>
	<path fill="#D9D8DA" d="M12,125h46c1.104,0,2,0.896,2,2v31c0,1.104-0.896,2-2,2H12c-1.104,0-2-0.896-2-2v-31
		C10,125.896,10.896,125,12,125z"/>
	<path fill="#B8B8BD" d="M21,145h28c0.553,0,1,0.447,1,1v3c0,0.553-0.447,1-1,1H21c-0.553,0-1-0.447-1-1v-3
		C20,145.447,20.447,145,21,145z"/>
	<path fill="#808186" d="M21,135h28c0.553,0,1,0.447,1,1v3c0,0.553-0.447,1-1,1H21c-0.553,0-1-0.447-1-1v-3
		C20,135.447,20.447,135,21,135z"/>
	<path fill="#D9D8DA" d="M72,125h46c1.104,0,2,0.896,2,2v31c0,1.104-0.896,2-2,2H72c-1.104,0-2-0.896-2-2v-31
		C70,125.896,70.896,125,72,125z"/>
	<path fill="#B8B8BD" d="M81,145h28c0.553,0,1,0.447,1,1v3c0,0.553-0.447,1-1,1H81c-0.553,0-1-0.447-1-1v-3
		C80,145.447,80.447,145,81,145z"/>
	<path fill="#808186" d="M81,135h28c0.553,0,1,0.447,1,1v3c0,0.553-0.447,1-1,1H81c-0.553,0-1-0.447-1-1v-3
		C80,135.447,80.447,135,81,135z"/>
	<g>
		<rect x="10" y="20" fill="none" width="110" height="10.073"/>
		<text transform="matrix(1 0 0 1 27.9658 28.6279)" fill="#5E5F5F" font-family="'Helvetica'" font-size="12">Landing Page</text>
	</g>
</g>
<g>
	<path fill="#EAEAEA" d="M2.511,0h124c1.657,0,3,1.343,3,3v164c0,1.657-1.343,3-3,3h-124c-1.657,0-3-1.343-3-3V3
		C-0.489,1.343,0.854,0,2.511,0z"/>
	<path fill="#B8B8BD" d="M11.511,47h106c1.104,0,2,0.896,2,2v58.857c0,1.104-0.896,2-2,2h-106c-1.104,0-2-0.896-2-2V49
		C9.511,47.896,10.406,47,11.511,47z"/>
	<circle fill="#808186" cx="65.296" cy="80.429" r="14.143"/>
	<path fill="#3B3A3D" d="M61.146,75.16l10.825,5.269l-10.825,5.269V75.16z"/>
	<g>
		<rect x="9.511" y="20" fill="none" width="110" height="10.073"/>
		<text transform="matrix(1 0 0 1 49.165 28.6279)" fill="#5E5F5F" font-family="'Helvetica'" font-size="12">Video</text>
	</g>
</g>
</svg>
