<?xml version="1.0" encoding="utf-8"?>
<!-- Generator: Adobe Illustrator 16.0.4, SVG Export Plug-In . SVG Version: 6.00 Build 0)  -->
<!DOCTYPE svg PUBLIC "-//W3C//DTD SVG 1.1//EN" "http://www.w3.org/Graphics/SVG/1.1/DTD/svg11.dtd">
<svg version="1.1" id="Layer_1" xmlns="http://www.w3.org/2000/svg" xmlns:xlink="http://www.w3.org/1999/xlink" x="0px" y="0px"
	 width="129.511px" height="170.681px" viewBox="0 0 129.511 170.681" enable-background="new 0 0 129.511 170.681"
	 xml:space="preserve">
<g id="Landing_Page_1_">
	<path fill="#EAEAEA" d="M3,0h124c1.657,0,3,1.343,3,3v164c0,1.657-1.343,3-3,3H3c-1.657,0-3-1.343-3-3V3C0,1.343,1.343,0,3,0z"/>
	<g>
		<path fill="#D9D8DA" d="M12,50h106c1.104,0,2,0.896,2,2v46c0,1.104-0.896,2-2,2H12c-1.104,0-2-0.896-2-2V52
			C10,50.896,10.896,50,12,50z"/>
		<path fill="#B8B8BD" d="M100.925,66.387l5.372,8.059c0.224,0.336,0.224,0.773,0,1.109l-5.372,8.059
			c-0.273,0.41-0.163,0.964,0.247,1.237c0.146,0.098,0.318,0.15,0.495,0.15h1.131c0.335,0,0.646-0.167,0.832-0.445l6-9
			c0.225-0.336,0.225-0.773,0-1.109l-6-9c-0.186-0.278-0.497-0.445-0.832-0.445h-1.131c-0.493,0-0.893,0.399-0.893,0.892
			C100.774,66.068,100.827,66.24,100.925,66.387z"/>
		<path fill="#B8B8BD" d="M29.075,83.613l-5.372-8.059c-0.224-0.336-0.224-0.773,0-1.109l5.372-8.059
			c0.273-0.41,0.163-0.964-0.247-1.237C28.682,65.052,28.51,65,28.333,65h-1.131c-0.335,0-0.646,0.167-0.832,0.445l-6,9
			c-0.225,0.336-0.225,0.773,0,1.109l6,9C26.556,84.833,26.867,85,27.202,85h1.131c0.493,0,0.893-0.399,0.893-0.892
			C29.226,83.932,29.173,83.76,29.075,83.613z"/>
	</g>
	<g>
		<circle fill="#B8B8BD" cx="75" cy="107.5" r="2.5"/>
		<circle fill="#B8B8BD" cx="65" cy="107.5" r="2.5"/>
		<circle fill="#B8B8BD" cx="55" cy="107.5" r="2.5"/>
	</g>
	<path fill="#D9D8DA" d="M12,125h46c1.104,0,2,0.896,2,2v31c0,1.104-0.896,2-2,2H12c-1.104,0-2-0.896-2-2v-31
		C10,125.896,10.896,125,12,125z"/>
	<path fill="#B8B8BD" d="M21,145h28c0.553,0,1,0.447,1,1v3c0,0.553-0.447,1-1,1H21c-0.553,0-1-0.447-1-1v-3
		C20,145.447,20.447,145,21,145z"/>
	<path fill="#808186" d="M21,135h28c0.553,0,1,0.447,1,1v3c0,0.553-0.447,1-1,1H21c-0.553,0-1-0.447-1-1v-3
		C20,135.447,20.447,135,21,135z"/>
	<path fill="#D9D8DA" d="M72,125h46c1.104,0,2,0.896,2,2v31c0,1.104-0.896,2-2,2H72c-1.104,0-2-0.896-2-2v-31
		C70,125.896,70.896,125,72,125z"/>
	<path fill="#B8B8BD" d="M81,145h28c0.553,0,1,0.447,1,1v3c0,0.553-0.447,1-1,1H81c-0.553,0-1-0.447-1-1v-3
		C80,145.447,80.447,145,81,145z"/>
	<path fill="#808186" d="M81,135h28c0.553,0,1,0.447,1,1v3c0,0.553-0.447,1-1,1H81c-0.553,0-1-0.447-1-1v-3
		C80,135.447,80.447,135,81,135z"/>
	<g>
		<rect x="10" y="20" fill="none" width="110" height="10.073"/>
		<text transform="matrix(1 0 0 1 27.9658 28.6279)" fill="#5E5F5F" font-family="'Helvetica'" font-size="12">Landing Page</text>
	</g>
</g>
<g>
	<path fill="#EAEAEA" d="M2.511,0h124c1.657,0,3,1.343,3,3v164c0,1.657-1.343,3-3,3h-124c-1.657,0-3-1.343-3-3V3
		C-0.489,1.343,0.854,0,2.511,0z"/>
	<path fill="#B8B8BD" d="M11.511,47h106c1.104,0,2,0.896,2,2v58.857c0,1.104-0.896,2-2,2h-106c-1.104,0-2-0.896-2-2V49
		C9.511,47.896,10.406,47,11.511,47z"/>
	<circle fill="#808186" cx="65.296" cy="80.429" r="14.143"/>
	<path fill="#3B3A3D" d="M61.146,75.16l10.825,5.269l-10.825,5.269V75.16z"/>
	<g>
		<rect x="9.511" y="20" fill="none" width="110" height="10.073"/>
		<text transform="matrix(1 0 0 1 49.165 28.6279)" fill="#5E5F5F" font-family="'Helvetica'" font-size="12">Video</text>
	</g>
</g>
<g>
	<g>
		<path fill="#EAEAEA" d="M2,0h124c1.657,0,3,1.343,3,3v164c0,1.657-1.343,3-3,3H2c-1.657,0-3-1.343-3-3V3C-1,1.343,0.343,0,2,0z"/>
		<path fill="#B8B8BD" fill-opacity="0.4" d="M11.17,111.5h104.16c1.199,0,2.17,0.447,2.17,1v3c0,0.553-0.971,1-2.17,1H11.17
			c-1.199,0-2.17-0.447-2.17-1v-3C9,111.947,9.971,111.5,11.17,111.5z"/>
		<path fill="#B8B8BD" fill-opacity="0.4" d="M11.17,121.5h104.16c1.199,0,2.17,0.447,2.17,1v3c0,0.553-0.971,1-2.17,1H11.17
			c-1.199,0-2.17-0.447-2.17-1v-3C9,121.947,9.971,121.5,11.17,121.5z"/>
		<g>
			<rect x="9" y="19.854" fill="none" width="110" height="10.073"/>
			<text transform="matrix(1 0 0 1 47.6582 28.4814)" fill="#5E5F5F" font-family="'Helvetica'" font-size="12">Modal</text>
		</g>
		<path fill="#B8B8BD" fill-opacity="0.4" d="M11.17,90.5h104.16c1.199,0,2.17,0.447,2.17,1v3c0,0.553-0.971,1-2.17,1H11.17
			c-1.199,0-2.17-0.447-2.17-1v-3C9,90.947,9.971,90.5,11.17,90.5z"/>
		<path fill="#B8B8BD" fill-opacity="0.4" d="M11.17,100.5h104.16c1.199,0,2.17,0.447,2.17,1v3c0,0.553-0.971,1-2.17,1H11.17
			c-1.199,0-2.17-0.447-2.17-1v-3C9,100.947,9.971,100.5,11.17,100.5z"/>
		<path fill="#B8B8BD" fill-opacity="0.4" d="M10.17,70h104.16c1.199,0,2.17,0.447,2.17,1v3c0,0.553-0.971,1-2.17,1H10.17
			C8.971,75,8,74.553,8,74v-3C8,70.447,8.971,70,10.17,70z"/>
		<path fill="#B8B8BD" fill-opacity="0.4" d="M10.17,80h104.16c1.199,0,2.17,0.447,2.17,1v3c0,0.553-0.971,1-2.17,1H10.17
			C8.971,85,8,84.553,8,84v-3C8,80.447,8.971,80,10.17,80z"/>
		<path fill="#B8B8BD" fill-opacity="0.4" d="M10.17,49h104.16c1.199,0,2.17,0.447,2.17,1v3c0,0.553-0.971,1-2.17,1H10.17
			C8.971,54,8,53.553,8,53v-3C8,49.447,8.971,49,10.17,49z"/>
		<path fill="#B8B8BD" fill-opacity="0.4" d="M10.17,59h104.16c1.199,0,2.17,0.447,2.17,1v3c0,0.553-0.971,1-2.17,1H10.17
			C8.971,64,8,63.553,8,63v-3C8,59.447,8.971,59,10.17,59z"/>
		<path opacity="0.2" fill-opacity="0.98" d="M4.975,0.5h116.551c3.575,0,6.475,2.156,6.475,4.814v158.871
			c0,2.659-2.899,4.814-6.475,4.814H4.975c-3.575,0-6.475-2.155-6.475-4.814V5.314C-1.5,2.656,1.399,0.5,4.975,0.5z"/>
		<path opacity="0.9" fill="#FFFFFF" fill-opacity="0.98" d="M20.25,42h85.5c2.623,0,4.75,0.896,4.75,2v66c0,1.104-2.127,2-4.75,2
			h-85.5c-2.623,0-4.75-0.896-4.75-2V44C15.5,42.896,17.627,42,20.25,42z"/>
		<path fill="#808186" d="M25.5,64.5h48c0.553,0,1,0.447,1,1v3c0,0.553-0.447,1-1,1h-48c-0.553,0-1-0.447-1-1v-3
			C24.5,64.947,24.947,64.5,25.5,64.5z"/>
		<path fill="#B8B8BD" d="M25.5,74.5h78c0.553,0,1,0.447,1,1v3c0,0.553-0.447,1-1,1h-78c-0.553,0-1-0.447-1-1v-3
			C24.5,74.947,24.947,74.5,25.5,74.5z"/>
		<path fill="#B8B8BD" d="M25.5,84.5h78c0.553,0,1,0.447,1,1v3c0,0.553-0.447,1-1,1h-78c-0.553,0-1-0.447-1-1v-3
			C24.5,84.947,24.947,84.5,25.5,84.5z"/>
	</g>
	<circle fill="#B8B8BD" cx="102" cy="51" r="4.5"/>
	<path fill="#FFFFFF" d="M103.272,49.091l0.637,0.637l-3.182,3.182l-0.637-0.637L103.272,49.091z"/>
	<path fill="#FFFFFF" d="M100.728,49.091l3.182,3.182l-0.637,0.637l-3.182-3.182L100.728,49.091z"/>
</g>
<g>
	<path fill="#EAEAEA" d="M2,0h124c1.657,0,3,1.343,3,3v164c0,1.657-1.343,3-3,3H2c-1.657,0-3-1.343-3-3V3C-1,1.343,0.343,0,2,0z"/>
	<g>
		<circle fill="#B8B8BD" cx="44" cy="152.5" r="2.5"/>
		<circle fill="#B8B8BD" cx="54" cy="152.5" r="2.5"/>
		<circle fill="#B8B8BD" cx="64" cy="152.5" r="2.5"/>
		<circle fill="#B8B8BD" cx="74" cy="152.5" r="2.5"/>
		<circle fill="#B8B8BD" cx="84" cy="152.5" r="2.5"/>
	</g>
	<path fill="#808186" d="M10,50h48c0.553,0,1,0.447,1,1v3c0,0.553-0.447,1-1,1H10c-0.553,0-1-0.447-1-1v-3C9,50.447,9.447,50,10,50z
		"/>
	<g>
		<path fill="#D9D8DA" d="M11,65h106c1.104,0,2,0.896,2,2v56c0,1.104-0.896,2-2,2H11c-1.104,0-2-0.896-2-2V67
			C9,65.896,9.896,65,11,65z"/>
		<path fill="#B8B8BD" d="M99.925,86.387l5.372,8.059c0.224,0.336,0.224,0.773,0,1.109l-5.372,8.059
			c-0.273,0.41-0.163,0.964,0.247,1.237c0.146,0.098,0.318,0.149,0.495,0.149h1.131c0.335,0,0.646-0.167,0.832-0.445l6-9
			c0.225-0.336,0.225-0.773,0-1.109l-6-9c-0.186-0.278-0.497-0.445-0.832-0.445h-1.131c-0.493,0-0.893,0.399-0.893,0.892
			C99.774,86.068,99.827,86.24,99.925,86.387z"/>
		<path fill="#B8B8BD" d="M28.075,103.613l-5.372-8.059c-0.224-0.336-0.224-0.773,0-1.109l5.372-8.059
			c0.273-0.41,0.163-0.964-0.247-1.237C27.682,85.052,27.51,85,27.333,85h-1.131c-0.335,0-0.646,0.167-0.832,0.445l-6,9
			c-0.225,0.336-0.225,0.773,0,1.109l6,9c0.186,0.278,0.497,0.445,0.832,0.445h1.131c0.493,0,0.893-0.399,0.893-0.892
			C28.226,103.932,28.173,103.76,28.075,103.613z"/>
		<path fill="#C8C8D1" d="M11,125h106c1.104,0,2,0.896,2,2v11c0,1.104-0.896,2-2,2H11c-1.104,0-2-0.896-2-2v-11
			C9,125.896,9.896,125,11,125z"/>
	</g>
	<g>
		<rect x="9" y="20.037" fill="none" width="110" height="10.072"/>
		<text transform="matrix(1 0 0 1 48.6602 28.6646)" fill="#5E5F5F" font-family="'Helvetica'" font-size="12">Slider</text>
	</g>
</g>
<g id="Form_1_">
	<path fill="#EAEAEA" d="M2,0h124c1.657,0,3,1.343,3,3v164c0,1.657-1.343,3-3,3H2c-1.657,0-3-1.343-3-3V3C-1,1.343,0.343,0,2,0z"/>
	<path fill="#FFFFFF" d="M11,50h106c1.104,0,2,0.896,2,2v6c0,1.104-0.896,2-2,2H11c-1.104,0-2-0.896-2-2v-6C9,50.896,9.896,50,11,50
		z"/>
	<path fill="#FFFFFF" d="M11,100h106c1.104,0,2,0.896,2,2v6c0,1.104-0.896,2-2,2H11c-1.104,0-2-0.896-2-2v-6
		C9,100.896,9.896,100,11,100z"/>
	<path fill="#FFFFFF" d="M11,120h106c1.104,0,2,0.896,2,2v6c0,1.104-0.896,2-2,2H11c-1.104,0-2-0.896-2-2v-6
		C9,120.896,9.896,120,11,120z"/>
	<path fill="#BCBBBD" d="M16.333,65.625h95.334c4.05,0,7.333,2.574,7.333,5.75v17.25c0,3.176-3.283,5.75-7.333,5.75H16.333
		c-4.05,0-7.333-2.574-7.333-5.75v-17.25C9,68.199,12.283,65.625,16.333,65.625z"/>
	<path fill="#FFFFFF" d="M11,140h106c1.104,0,2,0.896,2,2v6c0,1.104-0.896,2-2,2H11c-1.104,0-2-0.896-2-2v-6
		C9,140.896,9.896,140,11,140z"/>
	<g>
		<rect x="9" y="19.78" fill="none" width="110" height="10.073"/>
		<text transform="matrix(1 0 0 1 15.3027 28.4082)" fill="#5E5F5F" font-family="'Helvetica'" font-size="12">Expand / Collapse</text>
	</g>
	
		<text transform="matrix(1.9375 0 0 1 109 106.667)" fill="#808285" font-family="'HelveticaNeue-CondensedBold'" font-size="5.4264">V</text>
	<text transform="matrix(1.9375 0 0 1 109 127)" fill="#808285" font-family="'HelveticaNeue-CondensedBold'" font-size="5.4264">V</text>
	<text transform="matrix(1.9375 0 0 1 110 147)" fill="#808285" font-family="'HelveticaNeue-CondensedBold'" font-size="5.4264">V</text>
	
		<text transform="matrix(-1.9375 0 0 -1 115.124 53.1719)" fill="#808285" font-family="'HelveticaNeue-CondensedBold'" font-size="5.4264">V</text>
</g>
<g id="Calendar_2_">
	<path fill="#EAEAEA" d="M2,0h124c1.657,0,3,1.343,3,3v164c0,1.657-1.343,3-3,3H2c-1.657,0-3-1.343-3-3V3C-1,1.343,0.343,0,2,0z"/>
	<g>
		<circle fill="#B8B8BD" cx="54" cy="157.5" r="2.5"/>
		<circle fill="#B8B8BD" cx="64" cy="157.5" r="2.5"/>
		<circle fill="#B8B8BD" cx="74" cy="157.5" r="2.5"/>
		<circle fill="#B8B8BD" cx="44" cy="157.5" r="2.5"/>
		<circle fill="#B8B8BD" cx="84" cy="157.5" r="2.5"/>
	</g>
	<g>
		<rect x="9" y="65" fill="#FFFFFF" width="110" height="80"/>
		<rect x="14" y="70" fill="#EAEAEA" width="10" height="10"/>
		<path fill="#D4D4D4" d="M11,50h106c1.104,0,2,0.896,2,2v11c0,1.104-0.896,2-2,2H11c-1.104,0-2-0.896-2-2V52
			C9,50.896,9.896,50,11,50z"/>
		<path fill="#D4D4D4" d="M11.5,145h105c1.381,0,2.5,1.119,2.5,2.5l0,0c0,1.381-1.119,2.5-2.5,2.5h-105c-1.381,0-2.5-1.119-2.5-2.5
			l0,0C9,146.119,10.119,145,11.5,145z"/>
		<rect x="29" y="70" fill="#EAEAEA" width="10" height="10"/>
		<rect x="44" y="70" fill="#EAEAEA" width="10" height="10"/>
		<rect x="59" y="70" fill="#D4D4D4" width="10" height="10"/>
		<rect x="74" y="70" fill="#D4D4D4" width="10" height="10"/>
		<rect x="89" y="70" fill="#D4D4D4" width="10" height="10"/>
		<rect x="104" y="70" fill="#D4D4D4" width="10" height="10"/>
		<rect x="14" y="85" fill="#D4D4D4" width="10" height="10"/>
		<rect x="29" y="85" fill="#D4D4D4" width="10" height="10"/>
		<rect x="44" y="85" fill="#D4D4D4" width="10" height="10"/>
		<rect x="59" y="85" fill="#D4D4D4" width="10" height="10"/>
		<rect x="74" y="85" fill="#D4D4D4" width="10" height="10"/>
		<rect x="89" y="85" fill="#D4D4D4" width="10" height="10"/>
		<rect x="104" y="85" fill="#D4D4D4" width="10" height="10"/>
		<rect x="14" y="100" fill="#D4D4D4" width="10" height="10"/>
		<rect x="29" y="100" fill="#D4D4D4" width="10" height="10"/>
		<rect x="44" y="100" fill="#D4D4D4" width="10" height="10"/>
		<rect x="59" y="100" fill="#D4D4D4" width="10" height="10"/>
		<rect x="74" y="100" fill="#727278" width="10" height="10"/>
		<rect x="89" y="100" fill="#D4D4D4" width="10" height="10"/>
		<rect x="104" y="100" fill="#D4D4D4" width="10" height="10"/>
		<rect x="14" y="115" fill="#D4D4D4" width="10" height="10"/>
		<rect x="29" y="115" fill="#D4D4D4" width="10" height="10"/>
		<rect x="44" y="115" fill="#D4D4D4" width="10" height="10"/>
		<rect x="59" y="115" fill="#D4D4D4" width="10" height="10"/>
		<rect x="74" y="115" fill="#D4D4D4" width="10" height="10"/>
		<rect x="89" y="115" fill="#D4D4D4" width="10" height="10"/>
		<rect x="104" y="115" fill="#D4D4D4" width="10" height="10"/>
		<rect x="14" y="130" fill="#D4D4D4" width="10" height="10"/>
		<rect x="29" y="130" fill="#D4D4D4" width="10" height="10"/>
		<rect x="44" y="130" fill="#D4D4D4" width="10" height="10"/>
		<rect x="59" y="130" fill="#D4D4D4" width="10" height="10"/>
		<rect x="74" y="130" fill="#EAEAEA" width="10" height="10"/>
		<rect x="89" y="130" fill="#EAEAEA" width="10" height="10"/>
		<rect x="104" y="130" fill="#EAEAEA" width="10" height="10"/>
	</g>
	<g>
		<rect x="9" y="20.073" fill="none" width="110" height="10.073"/>
		<text transform="matrix(1 0 0 1 39.6514 28.7012)" fill="#5E5F5F" font-family="'Helvetica'" font-size="12">Calendar</text>
	</g>
</g>
<g id="Directory_1_">
	<path fill="#EAEAEA" d="M2,0h124c1.657,0,3,1.343,3,3v164c0,1.657-1.343,3-3,3H2c-1.657,0-3-1.343-3-3V3C-1,1.343,0.343,0,2,0z"/>
	<path fill="#808186" d="M25,50h48c0.553,0,1,0.447,1,1v3c0,0.553-0.447,1-1,1H25c-0.553,0-1-0.447-1-1v-3
		C24,50.447,24.447,50,25,50z"/>
	<path fill="#B8B8BD" d="M25,60h78c0.553,0,1,0.447,1,1v3c0,0.553-0.447,1-1,1H25c-0.553,0-1-0.447-1-1v-3
		C24,60.447,24.447,60,25,60z"/>
	<path fill="#808186" d="M25,90h48c0.553,0,1,0.447,1,1v3c0,0.553-0.447,1-1,1H25c-0.553,0-1-0.447-1-1v-3
		C24,90.447,24.447,90,25,90z"/>
	<path fill="#B8B8BD" d="M25,100h78c0.553,0,1,0.447,1,1v3c0,0.553-0.447,1-1,1H25c-0.553,0-1-0.447-1-1v-3
		C24,100.447,24.447,100,25,100z"/>
	<path fill="#808186" d="M25,130h48c0.553,0,1,0.447,1,1v3c0,0.553-0.447,1-1,1H25c-0.553,0-1-0.447-1-1v-3
		C24,130.447,24.447,130,25,130z"/>
	<path fill="#B8B8BD" d="M25,140h78c0.553,0,1,0.447,1,1v3c0,0.553-0.447,1-1,1H25c-0.553,0-1-0.447-1-1v-3
		C24,140.447,24.447,140,25,140z"/>
	<path fill="#B8B8BD" d="M25,70h78c0.553,0,1,0.447,1,1v3c0,0.553-0.447,1-1,1H25c-0.553,0-1-0.447-1-1v-3
		C24,70.447,24.447,70,25,70z"/>
	<path fill="#B8B8BD" d="M25,110h78c0.553,0,1,0.447,1,1v3c0,0.553-0.447,1-1,1H25c-0.553,0-1-0.447-1-1v-3
		C24,110.447,24.447,110,25,110z"/>
	<path fill="#B8B8BD" d="M25,150h78c0.553,0,1,0.447,1,1v3c0,0.553-0.447,1-1,1H25c-0.553,0-1-0.447-1-1v-3
		C24,150.447,24.447,150,25,150z"/>
	<g>
		<rect x="9" y="19.816" fill="none" width="110" height="10.074"/>
		<text transform="matrix(1 0 0 1 48.9971 28.4448)" fill="#5E5F5F" font-family="'Helvetica'" font-size="12">News</text>
	</g>
</g>
</svg>
